PathFileType	4	(X/Y/Z)	E:/New_biomech_experiments/27_06_2024_Shreyas_Arm26_updated ground/Afternoon session/Neeraj_PP_27_6_24_elbow_flexion_t01.trc	
DataRate	CameraRate	NumFrames	NumMarkers	Units	OrigDataRate	OrigDataStartFrame	OrigNumFrames	
120.00	120.00	73	4	m	120.00	816	6524	
Frame#	Time	MarkerSet_r_acromion			MarkerSet_r_humerus_epicondyle			MarkerSet_r_radius_styloid			MarkerSet_RHAND			
		X1	Y1	Z1	X2	Y2	Z2	X3	Y3	Z3	X4	Y4	Z4	

816	6.792	0.00123	0.79042	0.21649	-0.01588	0.44493	0.24254	0.08657	0.17990	0.28048	0.12222	0.09225	0.24643 
817	6.800	0.00124	0.79042	0.21650	-0.01588	0.44493	0.24255	0.08657	0.17990	0.28050	0.12221	0.09225	0.24644 
818	6.808	0.00125	0.79042	0.21650	-0.01588	0.44493	0.24255	0.08657	0.17991	0.28051	0.12221	0.09224	0.24646 
819	6.817	0.00125	0.79041	0.21650	-0.01588	0.44493	0.24256	0.08657	0.17991	0.28053	0.12221	0.09224	0.24647 
820	6.825	0.00126	0.79041	0.21650	-0.01589	0.44492	0.24257	0.08657	0.17990	0.28055	0.12222	0.09224	0.24649 
821	6.833	0.00126	0.79040	0.21650	-0.01588	0.44492	0.24258	0.08657	0.17990	0.28056	0.12223	0.09224	0.24650 
822	6.842	0.00127	0.79039	0.21651	-0.01588	0.44491	0.24259	0.08658	0.17990	0.28058	0.12224	0.09224	0.24652 
823	6.850	0.00127	0.79038	0.21651	-0.01587	0.44491	0.24260	0.08659	0.17989	0.28060	0.12225	0.09223	0.24654 
824	6.858	0.00128	0.79038	0.21652	-0.01586	0.44490	0.24261	0.08660	0.17989	0.28062	0.12226	0.09222	0.24656 
825	6.867	0.00128	0.79037	0.21653	-0.01584	0.44490	0.24261	0.08660	0.17988	0.28063	0.12227	0.09221	0.24658 
826	6.875	0.00129	0.79036	0.21653	-0.01583	0.44489	0.24262	0.08661	0.17988	0.28065	0.12227	0.09220	0.24660 
827	6.883	0.00129	0.79035	0.21654	-0.01581	0.44489	0.24262	0.08662	0.17987	0.28066	0.12228	0.09219	0.24662 
828	6.892	0.00130	0.79034	0.21655	-0.01579	0.44488	0.24262	0.08663	0.17986	0.28067	0.12229	0.09218	0.24664 
829	6.900	0.00130	0.79033	0.21656	-0.01577	0.44487	0.24262	0.08663	0.17985	0.28067	0.12229	0.09217	0.24665 
830	6.908	0.00131	0.79033	0.21656	-0.01575	0.44487	0.24262	0.08664	0.17984	0.28068	0.12230	0.09215	0.24666 
831	6.917	0.00132	0.79032	0.21657	-0.01574	0.44486	0.24262	0.08664	0.17983	0.28068	0.12230	0.09214	0.24666 
832	6.925	0.00133	0.79031	0.21658	-0.01572	0.44485	0.24262	0.08665	0.17982	0.28067	0.12231	0.09213	0.24665 
833	6.933	0.00134	0.79030	0.21658	-0.01571	0.44483	0.24261	0.08666	0.17981	0.28067	0.12232	0.09212	0.24665 
834	6.942	0.00136	0.79029	0.21659	-0.01569	0.44482	0.24261	0.08667	0.17979	0.28066	0.12234	0.09211	0.24664 
835	6.950	0.00138	0.79028	0.21659	-0.01568	0.44481	0.24260	0.08667	0.17978	0.28064	0.12235	0.09211	0.24662 
836	6.958	0.00140	0.79027	0.21660	-0.01567	0.44480	0.24259	0.08668	0.17977	0.28063	0.12238	0.09210	0.24661 
837	6.967	0.00142	0.79026	0.21661	-0.01565	0.44479	0.24258	0.08669	0.17975	0.28061	0.12241	0.09210	0.24659 
838	6.975	0.00143	0.79025	0.21661	-0.01563	0.44478	0.24257	0.08670	0.17974	0.28059	0.12244	0.09210	0.24657 
839	6.983	0.00145	0.79024	0.21662	-0.01561	0.44477	0.24256	0.08672	0.17973	0.28056	0.12247	0.09210	0.24655 
840	6.992	0.00147	0.79023	0.21663	-0.01559	0.44476	0.24255	0.08673	0.17971	0.28054	0.12249	0.09209	0.24653 
841	7.000	0.00148	0.79022	0.21663	-0.01557	0.44475	0.24253	0.08674	0.17969	0.28052	0.12252	0.09208	0.24650 
842	7.008	0.00150	0.79022	0.21664	-0.01554	0.44473	0.24252	0.08676	0.17968	0.28049	0.12254	0.09207	0.24648 
843	7.017	0.00152	0.79021	0.21664	-0.01552	0.44472	0.24251	0.08678	0.17966	0.28047	0.12258	0.09207	0.24646 
844	7.025	0.00154	0.79021	0.21665	-0.01550	0.44470	0.24250	0.08681	0.17965	0.28044	0.12261	0.09207	0.24643 
845	7.033	0.00156	0.79020	0.21665	-0.01548	0.44469	0.24249	0.08683	0.17964	0.28042	0.12265	0.09207	0.24641 
846	7.042	0.00158	0.79020	0.21665	-0.01546	0.44467	0.24248	0.08686	0.17962	0.28039	0.12270	0.09207	0.24639 
847	7.050	0.00160	0.79020	0.21665	-0.01544	0.44465	0.24247	0.08689	0.17961	0.28037	0.12274	0.09207	0.24636 
848	7.058	0.00162	0.79019	0.21666	-0.01542	0.44464	0.24246	0.08691	0.17960	0.28035	0.12278	0.09206	0.24634 
849	7.067	0.00165	0.79018	0.21667	-0.01539	0.44463	0.24246	0.08694	0.17959	0.28033	0.12283	0.09206	0.24633 
850	7.075	0.00167	0.79017	0.21668	-0.01537	0.44462	0.24245	0.08697	0.17958	0.28032	0.12286	0.09206	0.24631 
851	7.083	0.00169	0.79017	0.21669	-0.01535	0.44460	0.24244	0.08700	0.17956	0.28030	0.12290	0.09205	0.24630 
852	7.092	0.00171	0.79015	0.21670	-0.01532	0.44459	0.24244	0.08703	0.17955	0.28029	0.12294	0.09205	0.24629 
853	7.100	0.00174	0.79014	0.21670	-0.01529	0.44458	0.24243	0.08705	0.17954	0.28028	0.12296	0.09204	0.24627 
854	7.108	0.00176	0.79012	0.21670	-0.01527	0.44457	0.24243	0.08708	0.17952	0.28027	0.12299	0.09202	0.24626 
855	7.117	0.00178	0.79011	0.21671	-0.01524	0.44456	0.24243	0.08710	0.17951	0.28026	0.12300	0.09201	0.24625 
856	7.125	0.00180	0.79011	0.21671	-0.01521	0.44456	0.24242	0.08711	0.17949	0.28025	0.12301	0.09199	0.24624 
857	7.133	0.00182	0.79011	0.21672	-0.01519	0.44455	0.24242	0.08712	0.17947	0.28024	0.12302	0.09198	0.24624 
858	7.142	0.00183	0.79012	0.21673	-0.01517	0.44454	0.24241	0.08712	0.17946	0.28023	0.12301	0.09196	0.24623 
859	7.150	0.00184	0.79013	0.21674	-0.01516	0.44453	0.24241	0.08711	0.17944	0.28022	0.12300	0.09194	0.24622 
860	7.158	0.00185	0.79015	0.21676	-0.01515	0.44452	0.24240	0.08710	0.17943	0.28021	0.12299	0.09192	0.24621 
861	7.167	0.00187	0.79015	0.21677	-0.01514	0.44451	0.24239	0.08709	0.17941	0.28021	0.12296	0.09189	0.24621 
862	7.175	0.00189	0.79016	0.21678	-0.01514	0.44450	0.24238	0.08707	0.17939	0.28020	0.12294	0.09187	0.24620 
863	7.183	0.00190	0.79016	0.21680	-0.01515	0.44448	0.24237	0.08704	0.17936	0.28019	0.12291	0.09184	0.24619 
864	7.192	0.00192	0.79016	0.21682	-0.01515	0.44447	0.24235	0.08702	0.17934	0.28018	0.12288	0.09181	0.24618 
865	7.200	0.00194	0.79015	0.21683	-0.01516	0.44445	0.24234	0.08699	0.17932	0.28017	0.12284	0.09179	0.24617 
866	7.208	0.00197	0.79015	0.21685	-0.01517	0.44444	0.24233	0.08696	0.17929	0.28016	0.12281	0.09176	0.24616 
867	7.217	0.00199	0.79015	0.21686	-0.01519	0.44442	0.24231	0.08692	0.17927	0.28014	0.12277	0.09173	0.24615 
868	7.225	0.00201	0.79015	0.21687	-0.01521	0.44440	0.24230	0.08688	0.17924	0.28013	0.12273	0.09170	0.24613 
869	7.233	0.00204	0.79014	0.21688	-0.01523	0.44438	0.24228	0.08684	0.17921	0.28011	0.12269	0.09167	0.24612 
870	7.242	0.00207	0.79013	0.21689	-0.01525	0.44437	0.24226	0.08680	0.17919	0.28010	0.12265	0.09165	0.24610 
871	7.250	0.00210	0.79012	0.21690	-0.01527	0.44435	0.24224	0.08676	0.17916	0.28008	0.12261	0.09162	0.24609 
872	7.258	0.00214	0.79010	0.21690	-0.01529	0.44433	0.24222	0.08672	0.17913	0.28007	0.12257	0.09159	0.24607 
873	7.267	0.00217	0.79009	0.21690	-0.01530	0.44431	0.24220	0.08668	0.17911	0.28005	0.12253	0.09156	0.24605 
874	7.275	0.00220	0.79009	0.21691	-0.01531	0.44429	0.24218	0.08664	0.17908	0.28003	0.12249	0.09154	0.24603 
875	7.283	0.00223	0.79008	0.21691	-0.01533	0.44427	0.24215	0.08660	0.17906	0.28001	0.12245	0.09151	0.24601 
876	7.292	0.00227	0.79008	0.21690	-0.01534	0.44425	0.24213	0.08656	0.17903	0.27999	0.12241	0.09148	0.24598 
877	7.300	0.00231	0.79007	0.21690	-0.01534	0.44424	0.24210	0.08653	0.17901	0.27996	0.12238	0.09145	0.24595 
878	7.308	0.00236	0.79005	0.21691	-0.01535	0.44422	0.24208	0.08650	0.17899	0.27994	0.12236	0.09143	0.24591 
879	7.317	0.00241	0.79003	0.21693	-0.01535	0.44421	0.24206	0.08647	0.17896	0.27991	0.12233	0.09141	0.24587 
880	7.325	0.00247	0.79001	0.21694	-0.01534	0.44419	0.24204	0.08645	0.17894	0.27988	0.12231	0.09138	0.24583 
881	7.333	0.00253	0.79000	0.21694	-0.01533	0.44418	0.24201	0.08644	0.17891	0.27985	0.12229	0.09136	0.24579 
882	7.342	0.00259	0.78998	0.21695	-0.01532	0.44416	0.24199	0.08642	0.17889	0.27982	0.12228	0.09133	0.24575 
883	7.350	0.00266	0.78997	0.21696	-0.01531	0.44415	0.24197	0.08641	0.17886	0.27978	0.12226	0.09130	0.24571 
884	7.358	0.00272	0.78995	0.21697	-0.01530	0.44413	0.24194	0.08641	0.17884	0.27975	0.12225	0.09128	0.24567 
885	7.367	0.00280	0.78994	0.21697	-0.01528	0.44412	0.24192	0.08641	0.17882	0.27972	0.12225	0.09125	0.24562 
886	7.375	0.00287	0.78993	0.21698	-0.01526	0.44410	0.24190	0.08641	0.17880	0.27968	0.12225	0.09123	0.24558 
887	7.383	0.00295	0.78992	0.21698	-0.01524	0.44409	0.24189	0.08642	0.17879	0.27965	0.12226	0.09121	0.24553 
888	7.392	0.00303	0.78991	0.21699	-0.01521	0.44408	0.24187	0.08643	0.17877	0.27962	0.12228	0.09119	0.24549 
